# xmcd CD database file
#
# Track frame offsets:
#	150
#	24685
#	46843
#	65986
#	87613
#	107222
#	133978
#	151516
#	174152
#	205600
#	223366
#	253355
#
# Disc length: 3908 seconds
#
# Revision: 3
# Processed by: cddbd v1.5.2PL0 Copyright (c) Steve Scherf et al.
# Submitted via: CDex 1.51
#
DISCID=b40f420c
DTITLE=China Moses and Raphael Lemonnier - Crazy Blues
DYEAR=2012
DGENRE=Rock
TTITLE0=Resolution Blues
TTITLE1=Why Don't You Do Right (With Pierrick Pedron)
TTITLE2=Closing Time (With Hugh Coltman)
TTITLE3=You're Crying
TTITLE4=The Mailman The Butcher And Me
TTITLE5=Crazy Blues
TTITLE6=Cherry Wine (With Sly Johnson)
TTITLE7=I Just want To Make Love To You
TTITLE8=Work Song
TTITLE9=Hot Stuff
TTITLE10=Just Say I Love Him
TTITLE11=Move Over
EXTD=YEAR: 2012
EXTT0=
EXTT1=
EXTT2=
EXTT3=
EXTT4=
EXTT5=
EXTT6=
EXTT7=
EXTT8=
EXTT9=
EXTT10=
EXTT11=
PLAYORDER=
